<svg xmlns="http://www.w3.org/2000/svg" viewBox="0 0 800 800" width="800" height="800">
<defs>
<linearGradient id="body" x1="0" y1="0" x2="1" y2="1">
<stop offset="0" stop-color="#FFF6C2"/><stop offset="0.45" stop-color="#FFE066"/><stop offset="1" stop-color="#FFC21F"/>
</linearGradient>
<linearGradient id="gold" x1="0" y1="0" x2="0" y2="1">
<stop offset="0" stop-color="#FFE45C"/><stop offset="1" stop-color="#FFC21F"/>
</linearGradient>
</defs>
<ellipse cx="400" cy="772" rx="185" ry="18" fill="#14204A" opacity="0.15"/>
<ellipse cx="160" cy="560" rx="58" ry="82" fill="url(#gold)" stroke="#14204A" stroke-width="18"/>
<ellipse cx="640" cy="560" rx="58" ry="82" fill="url(#gold)" stroke="#14204A" stroke-width="18"/>
<ellipse cx="318" cy="705" rx="88" ry="55" fill="url(#gold)" stroke="#14204A" stroke-width="18"/>
<ellipse cx="482" cy="705" rx="88" ry="55" fill="url(#gold)" stroke="#14204A" stroke-width="18"/>
<g fill="#FFB300" stroke="#14204A" stroke-width="16" stroke-linejoin="round">
<rect x="106" y="278" width="90" height="52" rx="8"/><rect x="106" y="382" width="90" height="52" rx="8"/>
<rect x="604" y="278" width="90" height="52" rx="8"/><rect x="604" y="382" width="90" height="52" rx="8"/>
<rect x="268" y="132" width="60" height="70" rx="8"/><rect x="370" y="132" width="60" height="70" rx="8"/><rect x="472" y="132" width="60" height="70" rx="8"/>
</g>
<path d="M282 118 L298 40 L350 88 L400 26 L450 88 L502 40 L518 118 Z" fill="url(#gold)" stroke="#14204A" stroke-width="16" stroke-linejoin="round"/>
<circle cx="400" cy="96" r="14" fill="#FF2E5B" stroke="#14204A" stroke-width="6"/>
<circle cx="395" cy="91" r="4" fill="#fff" opacity="0.8"/>
<rect x="176" y="182" width="448" height="448" rx="92" fill="url(#body)" stroke="#14204A" stroke-width="20"/>
<ellipse cx="290" cy="248" rx="75" ry="34" transform="rotate(-14 290 248)" fill="#fff" opacity="0.55"/>
<ellipse cx="242" cy="458" rx="46" ry="25" fill="#FF8FA3" opacity="0.85"/>
<ellipse cx="558" cy="458" rx="46" ry="25" fill="#FF8FA3" opacity="0.85"/>
<path d="M346 532 L372 506 L428 506 L454 532 L400 602 Z" fill="#FF2E5B" stroke="#14204A" stroke-width="12" stroke-linejoin="round"/>
<path d="M372 512 L428 512 L440 528 L360 528 Z" fill="#FF8FA8"/>
<ellipse cx="318" cy="380" rx="48" ry="56" fill="#14204A"/>
<circle cx="330" cy="356" r="14" fill="#fff"/><circle cx="302" cy="398" r="6" fill="#fff"/><ellipse cx="482" cy="380" rx="48" ry="56" fill="#14204A"/>
<circle cx="494" cy="356" r="14" fill="#fff"/><circle cx="466" cy="398" r="6" fill="#fff"/>
<path d="M282 300 Q318 282 352 298" fill="none" stroke="#14204A" stroke-width="12" stroke-linecap="round"/>
<path d="M448 298 Q482 282 518 300" fill="none" stroke="#14204A" stroke-width="12" stroke-linecap="round"/>
<ellipse cx="400" cy="475" rx="22" ry="27" fill="#14204A"/><ellipse cx="400" cy="487" rx="12" ry="9" fill="#FF6F8A"/>
<g stroke="#14204A" stroke-width="12" stroke-linecap="round">
<line x1="140" y1="200" x2="100" y2="160"/><line x1="660" y1="200" x2="700" y2="160"/>
<line x1="120" y1="240" x2="70" y2="232"/><line x1="680" y1="240" x2="730" y2="232"/></g>
</svg>
